<svg width="1400" height="300" viewBox="-100 -100 1400 240" xmlns="http://www.w3.org/2000/svg">
   <path class="prefix__prefix__st0" fill="#00b65f"
      d="M727.07-120.757h162.716v37.944H727.07zm124.775 281.601V-74.812h37.934v235.656zM910.5-120.751h162.715v37.944H910.5zm124.775 281.601V-74.806h37.933V160.85zM1095.301-120.605h162.715v37.944H1095.3zm124.774 281.601V-74.66h37.934v235.656zM-64.322-123.317H98.393v37.945H-64.322zM60.455 121.338v-198.71h37.933v198.71zm525.994-91.897l.093 130.306-34.872-.025-.093-130.305z" />
   <path class="prefix__prefix__st0" fill="#00b65f" d="M98.593 120.905l-37.468 37.478-26.42-26.427 37.468-37.479z" />
   <path class="prefix__prefix__st0" fill="#00b65f"
      d="M61.058 158.683H-62.724V120.74H61.058zM440.716 29.127l.093 97.196-34.872-.019-.093-97.196zm83.285-.604l.093 97.196-34.871-.018-.094-97.196z" />
   <path class="prefix__prefix__st0" fill="#00b65f"
      d="M463.984 136.108l-34.429-34.496-24.277 24.325 34.429 34.496zm24.778 23.735l34.496-34.43-24.324-24.277-34.496 34.43z" />
   <path class="prefix__prefix__st0" fill="#00b65f"
      d="M488.18 125.814l-48.697-.007.005 34.395 48.698.007zm130.44-72.502l-34.43 34.496-24.277-24.325 34.43-34.496z" />
   <path class="prefix__prefix__st0" fill="#00b65f"
      d="M642.816 63.605l-48.697.007.005-34.394 48.697-.007zM378.316 46.885L312.701 160.72l-30.187-17.457 65.615-113.835zm-53.905 6.209l-34.43 34.496-24.277-24.325 34.43-34.496z" />
   <path class="prefix__prefix__st0" fill="#00b65f"
      d="M348.607 63.388l-48.698.007.005-34.395 48.698-.007zm-13.533 72.759l34.43-34.496 24.277 24.324-34.43 34.496z" />
   <path class="prefix__prefix__st0" fill="#00b65f" d="M310.878 125.853l48.697-.007-.005 34.395-48.697.007z" />
   <g>
      <path class="prefix__prefix__st0" fill="#00b65f"
         d="M254.606 122.012l-37.467 37.992-26.42-26.79 37.467-37.991zm-64.224-66.4l-37.468 37.992-26.42-26.79 37.468-37.991zm-37.213 38.372l37.478 37.98-26.428 26.782-37.478-37.98z" />
      <path class="prefix__prefix__st0" fill="#00b65f" d="M216.665 28.918l33.616 34.065-26.427 26.782L190.237 55.7z" />
      <path class="prefix__prefix__st0" fill="#00b65f"
         d="M168.89 91.886l37.468-37.992 26.42 26.79-37.468 37.991zm-42.1 28.757l-.009-53.721 37.37.005.008 53.722z" />
      <path class="prefix__prefix__st0" fill="#00b65f"
         d="M216.55 66.656l-52.994.008.005-37.882 52.995-.007zm.56 92.925l-52.996.008.006-37.881 52.995-.008z" />
   </g>
   <g>
      <path class="prefix__prefix__st0" fill="#00b65f"
         d="M784.759 122.287l-37.468 37.992-26.42-26.79 37.468-37.992zM683.32 94.258l37.48 37.981-26.428 26.782-37.479-37.98z" />
      <path class="prefix__prefix__st0" fill="#00b65f"
         d="M769.793 99.35l37.479 37.98-26.428 26.782-37.478-37.98zm-112.851 21.568l-.008-53.721 37.37.005.007 53.722z" />
      <path class="prefix__prefix__st0" fill="#00b65f"
         d="M746.67 121.491l-.008-53.721 37.369.005.008 53.722zm.592 38.365l-52.995.008.005-37.881 52.995-.008z" />
      <path class="prefix__prefix__st0" fill="#00b65f"
         d="M784.595 67.02l-37.467-37.99-26.42 26.79 37.468 37.991zM683.158 95.05l37.478-37.982-26.427-26.781-37.479 37.98z" />
      <path class="prefix__prefix__st0" fill="#00b65f" d="M747.097 29.451l-52.995-.008.006 37.882 52.995.008z" />
   </g>
</svg>